# xmcd
#
# Track frame offsets: 
#        150
#        4438
#        21768
#        35274
#        45520
#        61522
#        74082
#        75378
#        85524
#        87336
#        96501
#        113628
#        124003
#        133254
#        156231
#        169510
#        170207
#        174088
#        202217
#        215333
#
# Disc length: 3750 seconds
#
# Revision: 0
# Processed by: cddbd v1.5.2PL0 Copyright (c) Steve Scherf et al.
# Submitted via: ExactAudioCopy v0.95b4
#
DISCID=090ea414
DTITLE=Jon Wayne - Two Graduated Jiggers
DYEAR=1900
DGENRE=
TTITLE0=Texas Fuel Injection
TTITLE1=Generator
TTITLE2=Texas Moquine Bird/I Caught Me a Squirrel
TTITLE3=I Do Drive Truck
TTITLE4=Time to Drink Whiskey
TTITLE5=Texas Drum Cooker
TTITLE6=Texas Learning Center
TTITLE7=Country Porno
TTITLE8=Old McDonald
TTITLE9=Donkey - Mule
TTITLE10=Mandolin Man
TTITLE11=Death and Texas
TTITLE12=Rock it Billy
TTITLE13=Las Vegas Audition
TTITLE14=Texas Jackin' Ledge
TTITLE15=Jimbo's Clown Room
TTITLE16=Balloon/Indian Girl
TTITLE17=Texas Genealogy
TTITLE18=International Squirrel
TTITLE19=Texas Assonance
EXTD=
EXTT0=
EXTT1=
EXTT2=
EXTT3=
EXTT4=
EXTT5=
EXTT6=
EXTT7=
EXTT8=
EXTT9=
EXTT10=
EXTT11=
EXTT12=
EXTT13=
EXTT14=
EXTT15=
EXTT16=
EXTT17=
EXTT18=
EXTT19=
PLAYORDER=
